<svg version="1.0" xmlns="http://www.w3.org/2000/svg" width="400" height="366.667" viewBox="0 0 300 275"><g fill="#f57c00"><path d="M94 2.05c-48.3 5.4-65.55 67.3-26.6 95.55l2.9 2.1-5.95 3.2c-24.3 12.95-46.4 48.5-55.5 89.4-4.3 19.1-5 24.7-5.55 43.9l-.55 19.7 2.6.65c2.6.65 2.65.8 2.65 9.55 0 8.25.15 8.9 2 8.9 1.1 0 2-.45 2-1 0-.65 6.35-1 17-1s17 .35 17 1c0 .55.9 1 2 1 1.8 0 2-.65 2-6.5 0-3.6.35-6.5.8-6.5.4 0 2.05 2.9 3.6 6.5 2.5 5.8 3.1 6.5 5.65 6.5h2.85l-6-12.05c-3.3-6.65-6.7-12.35-7.55-12.65-1.85-.7-3.45 1.45-3.1 4.05.25 1.75-.75 1.85-16.65 1.85l-16.9-.05.2-7.35c.65-24.95 11.95-37.8 36.6-41.7 3.85-.6 8-1.4 9.25-1.7 1.9-.55 2.25-.25 2.25 1.95 0 9.8 11.9 28.05 21.4 32.9 2.85 1.45 2.9 1.55 2.7 9.45-.3 10.8-1.2 10.4 21.55 10.05l18.85-.25.3-4.75c.3-4.4.5-4.75 3-4.75 1.5 0 5.05-.3 7.9-.65l5.2-.6.3 9.85.3 9.9 11.9.3c14.85.35 14.05 1.25 13.75-15.55l-.25-13.75 4.5-4.35c5.15-5 11.95-17.9 13.65-25.8l1.05-5.15 11.2 2.9c29.75 7.75 39.6 19.6 40.2 48.2 0 .4-7.1.85-15.75 1l-15.75.2v-2.8c0-3-2.7-4.85-4-2.7-.45.7-1.1 4.2-1.5 7.8s-1.3 8.6-2.1 11.1c-.75 2.55-1.4 4.7-1.4 4.85s1.35.25 3 .25 3-.45 3-1c0-.65 6.65-1 18-1s18 .35 18 1c0 .55 1.15 1 2.6 1 2.25 0 2.55-.35 2.05-2.35-.35-1.3-1.05-9.3-1.6-17.75-2.45-37.9-10.6-45.4-61.55-56.4-4.4-.95-9.1-2.05-10.5-2.45l-2.5-.7V178.4c0-19.75.3-21.15 5.55-26.85 19-20.6 88.3-9.65 117 18.5 9.05 8.85 9.65-.2.9-13.05-17-24.85-56.3-45.1-101.95-52.5-8.05-1.25-11.1-2.2-13-4-5.35-4.9-14.9-8.35-25.95-9.4l-6.45-.6 3.2-3.65c6.25-7.05 10.2-19.1 10.15-30.85-.1-34.45-28-57.95-63.95-53.95m22.35 6c30.4 8.4 45.3 41.25 31.6 69.55-4.25 8.75-8.65 12.15-16.2 12.55-8 .4-8.2.05-2.15-3.75 14.4-9.1 20.3-30.55 12.8-46.45C129.55 12.8 92.65 6.2 71.6 27.25c-19.25 19.3-14 51.35 10.3 62.95l6.55 3.15-6.45 1.8c-8.75 2.5-7.95 2.75-16.25-5.4-36.65-36 .3-95.65 50.6-81.7m-3.8 12.5c27.75 7.25 37.5 38.85 18.1 58.75-15.25 15.65-41.05 15.45-56.15-.4-25.6-26.85 1.2-67.95 38.05-58.35M133 94.45c0 .2-2.45 1.55-5.45 2.9-22.25 10.2-28.9 37.1-14.05 56.9 6.2 8.2 6.3 8.85 6.95 49.6.5 32.95.4 36.3-1 35.75-.9-.35-7.75-.6-15.3-.6h-13.7l.05-20.75V197.5l-5.5.05c-6.05.05-38.9 4.8-45.4 6.55-18.85 5.1-28.6 18.3-31.95 43.4-.25 1.65-.4-1.05-.4-6 0-17.4 3.8-41.45 9.45-60 17.4-57.2 46.4-83.6 94.55-86.1 6.75-.35 12.45-.85 12.65-1.05.6-.5 9.1-.45 9.1.1m26.05 3.05c5.9 1 10.65 3.15 15.4 6.95 3.4 2.7 5.6 3.45 14.05 4.85 44.7 7.25 89.25 29.85 100.05 50.85 1.25 2.4 1.35 3.05.35 2.25-34.6-27.45-94.95-35.6-116.85-15.85-5.65 5.15-7.45 9.15-9.5 20.95-5.3 31.05-16.6 45.15-33.4 41.65l-3.15-.65-.45-10.5c-.25-5.8-.5-15.45-.6-21.5-.2-12.65-1.6-17.4-7.35-24.95-20.4-26.7 5.25-60.15 41.45-54.05M163.7 214l-.2 28h-17l-.15-16c-.1-8.8.2-16 .65-16 3.45 0 11.85-10.95 14.45-18.85.95-2.85 1.9-5.15 2.1-5.15s.3 12.6.15 28m6.3-11.55c0 1.35-.45 2.7-1 3.05-.6.35-1-.65-1-2.45 0-1.65.45-3.05 1-3.05s1 1.1 1 2.45m-84.45 8.05c.05 11.75-1.65 11.15-7.45-2.7-2.2-5.2-1.9-5.6 3.9-5.7l3.5-.1zm97.15-7.1c1.9 1.85-11.05 28.35-13.95 28.55-1.95.15-.7-14.1 1.65-18.75 1.3-2.6 2.7-6.2 3.1-8.05.65-3.05 6.75-4.25 9.2-1.75m-109.2 5.3c2.2 5.85 6.05 12.1 9.05 14.8 2.35 2.1 4.45 13.5 2.5 13.5-4.05 0-15.15-15.4-18.1-25.2-1.95-6.5-1.8-7.3 1.55-8.05 2.8-.55 3-.4 5 4.95m68.2 13.4.25 8.65-7.45.7c-9.7.95-9.6 1-9.3-9.25l.3-8.7 8-.05h8zm.3 17.8c0 4.5-1.1 5.05-10.15 5.1h-5.65l-.45-3.75c-.6-4.95-1.05-4.7 8.15-5l8.1-.25zm-21 9.6v5.5l-13 .2c-7.15.1-14 .2-15.25.25-2.05.05-2.3-.45-2.55-5.7l-.3-5.75H121zm43 0v3.5h-18v-7h18zm0 11.5v3h-17v-6h17zm-117.4 1.6c-.35.85-.6 2.45-.6 3.5 0 1.8-.9 1.9-17 1.9H12v-7h17.6c15.65 0 17.55.2 17 1.6M239 265v3h-17c-17.85 0-18.05-.05-16.4-4.4.55-1.35 3-1.6 17-1.6H239z"/><path d="M149.9 114.35c-1.95.75-5.35 2.7-7.5 4.35-2.15 1.7-5.6 3.35-7.65 3.75-6.45 1.1-5.35 4.95 1.2 4.35 4.3-.45 5.4-.15 8.25 2.2 11.2 9.2 24.85 8 32.1-2.8 3.65-5.4 3.2-6.35-4.5-10.15-7-3.4-15.25-4.05-21.9-1.7m4.1 6.7c0 5.05 1.6 6.95 5.85 6.95 4.7 0 6.15-1.4 6.15-6.1 0-4.1 1.4-4.35 5.8-1.05l2.3 1.75-2.05 2.6c-5.8 7.35-15.75 7.25-25.85-.35l-2.25-1.7 4.25-2.55c5.45-3.25 5.8-3.25 5.8.45"/></g></svg>